<?xml version="1.0" encoding="UTF-8"?>
<!DOCTYPE svg PUBLIC "-//W3C//DTD SVG 1.1//EN" "http://www.w3.org/Graphics/SVG/1.1/DTD/svg11.dtd">
<svg xmlns="http://www.w3.org/2000/svg" version="1.1" width="448px" height="512px" style="shape-rendering:geometricPrecision; text-rendering:geometricPrecision; image-rendering:optimizeQuality; fill-rule:evenodd; clip-rule:evenodd" xmlns:xlink="http://www.w3.org/1999/xlink">
<g><path style="opacity:0.984" fill="#272840" d="M 215.5,-0.5 C 220.833,-0.5 226.167,-0.5 231.5,-0.5C 237.022,1.26512 242.022,4.09846 246.5,8C 289.333,50.8333 332.167,93.6667 375,136.5C 382.754,145.444 385.421,155.777 383,167.5C 380.339,178.32 373.839,185.82 363.5,190C 351.18,193.763 339.847,191.763 329.5,184C 305,159.5 280.5,135 256,110.5C 255.667,182.833 255.333,255.167 255,327.5C 252.354,337.31 246.52,344.477 237.5,349C 220.774,355.086 206.941,351.252 196,337.5C 194.275,334.326 192.942,330.993 192,327.5C 191.667,255.167 191.333,182.833 191,110.5C 166.5,135 142,159.5 117.5,184C 104.815,192.794 91.482,193.794 77.5,187C 63.7477,176.059 59.9143,162.226 66,145.5C 67.2709,142.567 68.9376,139.901 71,137.5C 114.5,94 158,50.5 201.5,7C 205.815,3.67822 210.482,1.17822 215.5,-0.5 Z"/></g>
<g><path style="opacity:0.992" fill="#272840" d="M 447.5,343.5 C 447.5,372.167 447.5,400.833 447.5,429.5C 437.833,474.5 410.5,501.833 365.5,511.5C 270.833,511.5 176.167,511.5 81.5,511.5C 36.5,501.833 9.16667,474.5 -0.5,429.5C -0.5,400.833 -0.5,372.167 -0.5,343.5C 6.10113,324.685 19.4345,316.852 39.5,320C 52,323.167 59.8333,331 63,343.5C 63.0651,369.864 63.7317,396.198 65,422.5C 69.2871,437.903 79.4538,446.07 95.5,447C 180.833,447.667 266.167,447.667 351.5,447C 367.181,445.589 377.348,437.423 382,422.5C 383.268,396.198 383.935,369.864 384,343.5C 390.355,324.562 403.522,316.728 423.5,320C 436.015,323.349 444.015,331.182 447.5,343.5 Z"/></g>
</svg>
